PathFileType	4	(X/Y/Z)	62_2_82_p0_0-509_filt_butterworth.trc
DataRate	CameraRate	NumFrames	NumMarkers	Units	OrigDataRate	OrigDataStartFrame	OrigNumFrames
54.0	54.0	4	27	m	54.0	0	509
Frame#	Time	RHip			RKnee			RAnkle			RBigToe			RSmallToe			RHeel			LHip			LKnee			LAnkle			LBigToe			LSmallToe			LHeel			Neck			Head			Nose			RShoulder			RElbow			RWrist			RThumb			RIndex			RPinky			LShoulder			LElbow			LWrist			LThumb			LIndex			LPinky			
		X1	Y1	Z1	X2	Y2	Z2	X3	Y3	Z3	X4	Y4	Z4	X5	Y5	Z5	X6	Y6	Z6	X7	Y7	Z7	X8	Y8	Z8	X9	Y9	Z9	X10	Y10	Z10	X11	Y11	Z11	X12	Y12	Z12	X13	Y13	Z13	X14	Y14	Z14	X15	Y15	Z15	X16	Y16	Z16	X17	Y17	Z17	X18	Y18	Z18	X19	Y19	Z19	X20	Y20	Z20	X21	Y21	Z21	X22	Y22	Z22	X23	Y23	Z23	X24	Y24	Z24	X25	Y25	Z25	X26	Y26	Z26	X27	Y27	Z27	
0	0.0	0.42595911768915035	0.24267280547263814	0.7460369111226985	0.3850484575296452	-0.14616246907347435	0.8122471186462757	0.36287122087929413	-0.5040067171874081	0.8949478800459151	0.30637425381679145	-0.5408243625335297	0.7756438154457753	0.36763674565194165	-0.5493531246418202	0.7956265490968536	0.3431005393895624	-0.5718726693613785	0.9905125187939454	0.2114300812972471	0.26802699308958716	0.7857262947132618	0.17909731860045647	-0.12091128380114008	0.8079323030063846	0.15522676783650308	-0.516858845323828	0.968251534651039	0.11536675615950992	-0.5146083585394028	0.7719329728466889	0.07896439935382504	-0.5142855752929207	0.8395284233099911	0.17141233167329467	-0.5530144853984658	1.0081347221914962	0.3310013854284101	0.8648254376762603	0.6647121996552088	0.3123265943264494	1.1104267544668622	0.6087691243064186	0.2784762980528727	0.9756040459938553	0.530395171284944	0.5003908469606348	0.7683735594753197	0.6433907677158405	0.5195392960272773	0.4895967297009688	0.6673632180554488	0.3640737658994017	0.2841094617474488	0.6457863428212494	0.27442863855145405	0.22333175090310003	0.6575299185604917	0.26806218036746665	0.21039512691096138	0.6841346646350963	0.27655594287518465	0.22527152028093061	0.6518648708348534	0.176259029075507	0.7910827982163734	0.7171595630517535	0.1411163113990071	0.5090071707364501	0.7768491772100808	0.21699013870823045	0.31403591419689203	0.649629312183825	0.27191825501785	0.24925315488701089	0.5933675613459208	0.2778825714546856	0.22792166140110764	0.5984191231818413	0.2711975126787338	0.22077686187239223	0.6696753270981377	
1	0.0185185185185185	0.4279131860226047	0.2426968447422031	0.7500141962871895	0.3847803780769751	-0.14849603386654067	0.816459473792027	0.36181464994964335	-0.5041054010338831	0.896361492413038	0.30679060589272156	-0.5401763412903725	0.7754217376532804	0.3652463675146115	-0.5441700177979505	0.7886549663736433	0.34152936526118566	-0.5710464989822398	0.9907411611271003	0.21108059625225545	0.2688669095257905	0.7863368856913471	0.1787709480266919	-0.12142646392973988	0.8085437427468976	0.15505522628090773	-0.5186606638167897	0.9681336680199066	0.11463739160758678	-0.5126933582199006	0.7709852019303786	0.07895702437530215	-0.5144248869196801	0.8394313038149557	0.1719693255111793	-0.555064599362574	1.008946481629397	0.33323206594977756	0.8662480184080548	0.6551786994845994	0.3124209945077868	1.1105863800888678	0.6043572422689197	0.280546262496191	0.9754943686102391	0.5306229317114882	0.5025077705269732	0.7650820002300506	0.6436085700186647	0.5229733930911807	0.48570670094916857	0.6731650180041138	0.36475447656201937	0.28415343483113525	0.6473413247207493	0.2772686344705542	0.22165904550097135	0.6471958152014774	0.2706449338632643	0.2103990462082699	0.6748309799004603	0.2782230282684959	0.22367577759574447	0.6596812917799657	0.1763160419063352	0.7889052264445535	0.7172419745613962	0.143849595905832	0.5082271572496508	0.7702629326526493	0.21988433595867676	0.3148748302200541	0.6432758522574077	0.2737081971505743	0.24613168852783635	0.6011771400395353	0.28060488313901727	0.22518508785938313	0.6106254696356543	0.27102916538816807	0.21848582060317634	0.6772595106771495	
2	0.037037037037037	0.4295743718721773	0.24263124179495976	0.7531230170149575	0.384559337092506	-0.15046045198298294	0.8199411871883711	0.36092970436200766	-0.5042972755110154	0.8976094073520177	0.3070079987481962	-0.539930326034956	0.7753116622320765	0.3634647229678587	-0.540751634024663	0.7841471878044811	0.34024997829894577	-0.57049888371489	0.9911220540990114	0.21077580212417976	0.26962338133969466	0.7866445531313356	0.17849997995784	-0.12171049067966211	0.808904082624815	0.15490846891920287	-0.52010518270524	0.9680525550537821	0.11417975242607464	-0.5113007301080827	0.7703421751289629	0.07895412105430492	-0.514529186284965	0.8393806371463346	0.17246643948830137	-0.5566888611256908	1.0096221843653033	0.33461097837333376	0.8672839137828793	0.6500816001958118	0.3125292809792354	1.1105637378936946	0.6007019185022119	0.2818561846099764	0.9754960085180272	0.5307617437593716	0.5039650305419704	0.7627769439239828	0.6437673142388289	0.5251768054108334	0.48278056767701816	0.6768411440001422	0.3652327348072578	0.28383924479486367	0.6479336819137342	0.2789954844293698	0.22076419715678755	0.6411800677522734	0.2722719650036153	0.21026614377180397	0.669720177462171	0.27939279237848486	0.22266407464017135	0.6645739903222467	0.17636393826098742	0.7876299128641648	0.7173005206786489	0.14561758337438346	0.5077984669532365	0.7657271409253588	0.2217131014449338	0.31541241970969686	0.639273176414768	0.2747639823263743	0.2440397925003887	0.6060465587753618	0.2823100528998598	0.22347482555020776	0.6183400703838389	0.2708720647320656	0.21728123190949558	0.6819952571530195	
3	0.0555555555555555	0.43095859844085616	0.24249582321879876	0.7554388664231637	0.38438084841781467	-0.15207658660078854	0.8227529473281644	0.36019944850487945	-0.5045710646792215	0.8987011665462787	0.3070657939566122	-0.5399876003691374	0.7752856896088116	0.36221838869268147	-0.5387983383003361	0.7816828488253695	0.33923847410127517	-0.5702023542687297	0.9916353154913449	0.21051183191773654	0.2703055833747865	0.7866919792840888	0.17827949980049176	-0.12178828846685164	0.809047446727107	0.15478471724687015	-0.52122166409128	0.9680049301637733	0.11393860825038166	-0.5103476802689559	0.7699529299625975	0.07895539561949184	-0.5145973642464803	0.8393653980431205	0.1729067160719406	-0.5579248550546231	1.0101724994901076	0.33530919445464225	0.8679673424618479	0.6485328140149542	0.31264387477154226	1.1104049083482783	0.5977624763423255	0.2825531754000396	0.9755688954444581	0.5308282915288647	0.5048768248620062	0.7613193724596229	0.6438754987184887	0.5263810589218503	0.48066550113770923	0.6787981948869716	0.3655356333479974	0.2832416458969367	0.6479318911266145	0.279798756670171	0.2204088755653629	0.6389248218351056	0.27307971563042904	0.21001317318770332	0.6680163172445166	0.2801371648233635	0.22208543446197346	0.6671185744617456	0.17640471448281525	0.7870998946558511	0.7173388898773964	0.14659507389248114	0.5076278160970986	0.7629470254989551	0.22268293793727975	0.315706282116702	0.6371658529811521	0.27523593121900125	0.24276676657009302	0.6085617160870378	0.2831963915090132	0.22259106547195748	0.6224427209425416	0.27073815864415873	0.21688318930373915	0.6844526730662805	
